<!-- Generated by IcoMoon.io -->
<svg version="1.1" xmlns="http://www.w3.org/2000/svg" width="32" height="32" viewBox="0 0 32 32">
<title>book</title>
<path fill="#008cff" d="M18.018 15.176c0.093 0.185 0.279 0.291 0.472 0.291 0.080 0 0.163-0.019 0.239-0.058 0.031-0.016 3.14-1.611 4.674-2.1 0.278-0.089 0.432-0.389 0.344-0.669s-0.382-0.437-0.663-0.348c-1.615 0.516-4.704 2.1-4.835 2.167-0.26 0.133-0.363 0.454-0.231 0.717z"></path>
<path fill="#008cff" d="M18.489 9.067c0.080 0 0.163-0.019 0.239-0.058 0.031-0.016 3.14-1.611 4.674-2.1 0.278-0.089 0.432-0.389 0.344-0.669s-0.382-0.437-0.663-0.348c-1.615 0.516-4.704 2.1-4.835 2.167-0.26 0.133-0.363 0.454-0.231 0.717 0.093 0.184 0.279 0.291 0.472 0.291z"></path>
<path fill="#008cff" d="M31.167 8c-0.292 0-0.528 0.239-0.528 0.533v20.8c0 0.882-0.711 1.6-1.585 1.6h-12.678v-1.227c0.77-0.272 2.776-0.906 4.754-0.906 4.602 0 7.726 1.029 7.757 1.039 0.159 0.053 0.337 0.027 0.475-0.074 0.138-0.1 0.219-0.261 0.219-0.433v-23.466c0-0.25-0.172-0.467-0.414-0.521 0 0-0.414-0.093-1.122-0.225-0.286-0.053-0.562 0.139-0.615 0.428-0.053 0.29 0.137 0.568 0.424 0.621 0.27 0.050 0.496 0.094 0.67 0.13v22.324c-1.197-0.317-3.855-0.891-7.396-0.891-2.302 0-4.562 0.763-5.262 1.022-0.622-0.277-2.501-1.022-4.775-1.022-3.639 0-6.636 0.606-7.924 0.914v-22.367c1.055-0.262 4.171-0.946 7.924-0.946 1.926 0 3.578 0.605 4.226 0.879v20.988c0 0.192 0.102 0.37 0.268 0.464s0.369 0.092 0.532-0.007c0.052-0.031 5.286-3.188 9.932-4.751 0.216-0.073 0.361-0.276 0.361-0.506v-21.867c0-0.175-0.085-0.339-0.228-0.438-0.142-0.1-0.323-0.123-0.487-0.061-4.226 1.601-8.503 4.287-8.546 4.314-0.247 0.156-0.323 0.485-0.168 0.735s0.48 0.326 0.728 0.17c0.039-0.025 3.76-2.362 7.644-3.939v20.705c-3.606 1.265-7.371 3.331-8.98 4.255v-20.407c0-0.202-0.113-0.387-0.292-0.477-0.091-0.045-2.256-1.123-4.99-1.123-4.773 0-8.443 1.043-8.597 1.087-0.227 0.065-0.383 0.275-0.383 0.513v23.466c0 0.167 0.078 0.325 0.21 0.426 0.093 0.071 0.205 0.108 0.319 0.108 0.049 0 0.097-0.007 0.145-0.021 0.036-0.010 3.689-1.046 8.307-1.046 1.931 0 3.582 0.607 4.226 0.879v1.254h-12.678c-0.874 0-1.585-0.718-1.585-1.6v-20.8c0-0.294-0.237-0.533-0.528-0.533s-0.528 0.239-0.528 0.533v20.8c0 1.47 1.185 2.667 2.641 2.667h26.413c1.456 0 2.641-1.196 2.641-2.667v-20.8c0-0.294-0.236-0.533-0.528-0.533z"></path>
<path fill="#008cff" d="M18.018 11.976c0.093 0.185 0.279 0.291 0.472 0.291 0.080 0 0.163-0.019 0.239-0.058 0.031-0.016 3.14-1.611 4.674-2.1 0.278-0.089 0.432-0.389 0.344-0.669s-0.382-0.437-0.663-0.348c-1.615 0.516-4.704 2.1-4.835 2.167-0.26 0.133-0.363 0.454-0.231 0.717z"></path>
<path fill="#008cff" d="M18.018 18.376c0.093 0.185 0.279 0.291 0.472 0.291 0.080 0 0.163-0.019 0.239-0.058 0.031-0.016 3.14-1.611 4.674-2.1 0.278-0.089 0.432-0.389 0.344-0.669s-0.382-0.437-0.663-0.348c-1.615 0.516-4.704 2.1-4.835 2.167-0.26 0.133-0.363 0.454-0.231 0.717z"></path>
<path fill="#008cff" d="M12.799 9.898c-3.262-0.773-6.969 0.212-7.125 0.254-0.282 0.076-0.449 0.368-0.373 0.653 0.063 0.238 0.277 0.395 0.51 0.395 0.045 0 0.091-0.006 0.137-0.018 0.035-0.010 3.604-0.958 6.61-0.246 0.283 0.067 0.568-0.111 0.635-0.398s-0.11-0.573-0.394-0.64z"></path>
<path fill="#008cff" d="M12.799 13.098c-3.262-0.772-6.969 0.212-7.125 0.254-0.282 0.076-0.449 0.369-0.373 0.653 0.063 0.238 0.277 0.395 0.51 0.395 0.045 0 0.091-0.006 0.137-0.018 0.035-0.010 3.604-0.958 6.61-0.246 0.283 0.067 0.568-0.111 0.635-0.398s-0.11-0.573-0.394-0.64z"></path>
<path fill="#008cff" d="M18.018 21.576c0.093 0.185 0.279 0.291 0.472 0.291 0.080 0 0.163-0.019 0.239-0.058 0.031-0.016 3.14-1.611 4.674-2.1 0.278-0.089 0.432-0.389 0.344-0.669s-0.382-0.437-0.663-0.348c-1.615 0.516-4.704 2.1-4.835 2.167-0.26 0.133-0.363 0.454-0.231 0.717z"></path>
<path fill="#008cff" d="M12.799 16.298c-3.262-0.772-6.969 0.211-7.125 0.254-0.282 0.076-0.449 0.369-0.373 0.653 0.063 0.238 0.277 0.396 0.51 0.396 0.045 0 0.091-0.006 0.137-0.019 0.035-0.010 3.604-0.958 6.61-0.246 0.283 0.067 0.568-0.111 0.635-0.398s-0.11-0.573-0.394-0.64z"></path>
<path fill="#008cff" d="M12.799 22.698c-3.262-0.773-6.969 0.212-7.125 0.254-0.282 0.076-0.449 0.369-0.373 0.653 0.063 0.238 0.277 0.396 0.51 0.396 0.045 0 0.091-0.006 0.137-0.019 0.035-0.010 3.604-0.958 6.61-0.246 0.283 0.066 0.568-0.111 0.635-0.398s-0.11-0.573-0.394-0.64z"></path>
<path fill="#008cff" d="M12.799 19.498c-3.262-0.773-6.969 0.211-7.125 0.254-0.282 0.076-0.449 0.369-0.373 0.653 0.063 0.238 0.277 0.396 0.51 0.396 0.045 0 0.091-0.006 0.137-0.019 0.035-0.010 3.604-0.958 6.61-0.246 0.283 0.067 0.568-0.111 0.635-0.398s-0.11-0.573-0.394-0.64z"></path>
</svg>
