<!-- Generated by IcoMoon.io -->
<svg version="1.1" xmlns="http://www.w3.org/2000/svg" width="32" height="32" viewBox="0 0 32 32">
<title>doctype</title>
<path fill="#008cff" d="M27.022 4.509h-1.034v-1.034c0-0.535-0.435-0.97-0.97-0.97h-6.166c-0.166-0.298-0.484-0.501-0.848-0.501h-7.091c-0.22-1.14-1.224-2.004-2.428-2.004s-2.208 0.864-2.428 2.004h-1.079c-0.535 0-0.97 0.435-0.97 0.97v13.026c0 0.365 0.203 0.683 0.501 0.848v12.178c0 0.535 0.435 0.97 0.97 0.97h1.034v1.034c0 0.535 0.435 0.97 0.97 0.97h19.539c0.535 0 0.97-0.435 0.97-0.97v-25.551c0-0.535-0.435-0.97-0.97-0.97zM4.946 2.974c0-0.018 0.014-0.032 0.032-0.032h1.034v4.541c0 1.364 1.109 2.473 2.473 2.473s2.473-1.109 2.473-2.473v-2.004c0-0.811-0.66-1.471-1.471-1.471s-1.471 0.66-1.471 1.471v1.002c0 0.259 0.21 0.469 0.469 0.469s0.469-0.21 0.469-0.469v-1.002c0-0.294 0.239-0.533 0.533-0.533s0.533 0.239 0.533 0.533v2.004c0 0.847-0.689 1.535-1.535 1.535s-1.535-0.689-1.535-1.535v-5.008c0-0.001 0-0.001 0-0.002s-0-0.001-0-0.001c0.001-0.846 0.689-1.534 1.535-1.534 0.683 0 1.263 0.449 1.462 1.067h-1.462c-0.259 0-0.469 0.21-0.469 0.469s0.21 0.469 0.469 0.469h9.519c0.018 0 0.032 0.014 0.032 0.032v13.026c0 0.018-0.014 0.032-0.032 0.032h-13.026c-0.018 0-0.032-0.014-0.032-0.032v-13.026zM27.054 31.030c0 0.018-0.014 0.032-0.032 0.032h-19.539c-0.018 0-0.032-0.015-0.032-0.032v-1.034h13.145c0.393 0 0.762-0.153 1.040-0.431l3.922-3.922c0.278-0.278 0.431-0.647 0.431-1.040v-16.619c0-0.259-0.21-0.469-0.469-0.469s-0.469 0.21-0.469 0.469v16.566h-3.539c-0.535 0-0.97 0.435-0.97 0.97v3.539h-15.063c-0.018 0-0.032-0.014-0.032-0.032v-12.056h12.557c0.535 0 0.97-0.435 0.97-0.97v-12.557h6.044c0.018 0 0.032 0.014 0.032 0.032v2.505c0 0.259 0.21 0.469 0.469 0.469s0.469-0.21 0.469-0.469v-0.533h1.034c0.018 0 0.032 0.014 0.032 0.032v25.551h-0zM21.479 28.396v-2.876c0-0.018 0.014-0.032 0.032-0.032h2.877l-2.909 2.909z"></path>
<path fill="#008cff" d="M12.994 7.451h2.505c0.259 0 0.469-0.21 0.469-0.469s-0.21-0.469-0.469-0.469h-2.505c-0.259 0-0.469 0.21-0.469 0.469s0.21 0.469 0.469 0.469z"></path>
<path fill="#008cff" d="M12.994 9.956h2.505c0.259 0 0.469-0.21 0.469-0.469s-0.21-0.469-0.469-0.469h-2.505c-0.259 0-0.469 0.21-0.469 0.469s0.21 0.469 0.469 0.469z"></path>
<path fill="#008cff" d="M7.483 12.461h8.016c0.259 0 0.469-0.21 0.469-0.469s-0.21-0.469-0.469-0.469h-8.016c-0.259 0-0.469 0.21-0.469 0.469s0.21 0.469 0.469 0.469z"></path>
<path fill="#008cff" d="M22.513 11.523h-1.002c-0.259 0-0.469 0.21-0.469 0.469s0.21 0.469 0.469 0.469h1.002c0.259 0 0.469-0.21 0.469-0.469s-0.21-0.469-0.469-0.469z"></path>
<path fill="#008cff" d="M22.513 6.513h-1.002c-0.259 0-0.469 0.21-0.469 0.469s0.21 0.469 0.469 0.469h1.002c0.259 0 0.469-0.21 0.469-0.469s-0.21-0.469-0.469-0.469z"></path>
<path fill="#008cff" d="M22.513 9.018h-1.002c-0.259 0-0.469 0.21-0.469 0.469s0.21 0.469 0.469 0.469h1.002c0.259 0 0.469-0.21 0.469-0.469s-0.21-0.469-0.469-0.469z"></path>
<path fill="#008cff" d="M22.513 14.028h-1.002c-0.259 0-0.469 0.21-0.469 0.469s0.21 0.469 0.469 0.469h1.002c0.259 0 0.469-0.21 0.469-0.469s-0.21-0.469-0.469-0.469z"></path>
<path fill="#008cff" d="M8.986 18.537h-1.002c-0.259 0-0.469 0.21-0.469 0.469s0.21 0.469 0.469 0.469h1.002c0.259 0 0.469-0.21 0.469-0.469s-0.21-0.469-0.469-0.469z"></path>
<path fill="#008cff" d="M8.986 23.547h-1.002c-0.259 0-0.469 0.21-0.469 0.469s0.21 0.469 0.469 0.469h1.002c0.259 0 0.469-0.21 0.469-0.469s-0.21-0.469-0.469-0.469z"></path>
<path fill="#008cff" d="M8.986 21.042h-1.002c-0.259 0-0.469 0.21-0.469 0.469s0.21 0.469 0.469 0.469h1.002c0.259 0 0.469-0.21 0.469-0.469s-0.21-0.469-0.469-0.469z"></path>
<path fill="#008cff" d="M22.513 18.537h-11.022c-0.259 0-0.469 0.21-0.469 0.469s0.21 0.469 0.469 0.469h11.022c0.259 0 0.469-0.21 0.469-0.469s-0.21-0.469-0.469-0.469z"></path>
<path fill="#008cff" d="M18.505 23.547h-7.014c-0.259 0-0.469 0.21-0.469 0.469s0.21 0.469 0.469 0.469h7.014c0.259 0 0.469-0.21 0.469-0.469s-0.21-0.469-0.469-0.469z"></path>
<path fill="#008cff" d="M22.513 21.042h-11.022c-0.259 0-0.469 0.21-0.469 0.469s0.21 0.469 0.469 0.469h11.022c0.259 0 0.469-0.21 0.469-0.469s-0.21-0.469-0.469-0.469z"></path>
</svg>
