<!-- Generated by IcoMoon.io -->
<svg version="1.1" xmlns="http://www.w3.org/2000/svg" width="32" height="32" viewBox="0 0 32 32">
<title>house</title>
<path fill="#008cff" d="M14.75 22.014c-0.259 0-0.469 0.21-0.469 0.469v0.948c0 0.259 0.21 0.469 0.469 0.469s0.469-0.21 0.469-0.469v-0.948c0-0.259-0.21-0.469-0.469-0.469z"></path>
<path fill="#008cff" d="M7.943 15.035h-1.824c-0.431 0-0.781 0.35-0.781 0.781v4.706c0 0.431 0.351 0.781 0.781 0.781h1.824c0.431 0 0.781-0.35 0.781-0.781v-4.706c0-0.431-0.351-0.781-0.781-0.781zM7.787 20.366h-1.512v-4.393h1.512v4.393z"></path>
<path fill="#008cff" d="M25.881 15.035h-1.824c-0.431 0-0.781 0.35-0.781 0.781v4.706c0 0.431 0.351 0.781 0.781 0.781h1.824c0.431 0 0.781-0.35 0.781-0.781v-4.706c0-0.431-0.351-0.781-0.781-0.781zM25.725 20.366h-1.512v-4.393h1.512v4.393z"></path>
<path fill="#008cff" d="M16.204 11.262h-0.409c-1.014 0-1.839 0.825-1.839 1.839v1.782c0 0.372 0.303 0.674 0.674 0.674h2.738c0.372 0 0.674-0.302 0.674-0.674v-1.782c0-1.014-0.825-1.839-1.839-1.839zM14.894 14.62v-1.519c0-0.497 0.405-0.902 0.902-0.902h0.409c0.497 0 0.902 0.405 0.902 0.902v1.519h-2.212z"></path>
<path fill="#008cff" d="M31.531 26.696h-2.203v-13.835h1.891c0.254 0 0.471-0.12 0.582-0.32s0.095-0.448-0.041-0.663l-3.834-6.066c-0.177-0.28-0.545-0.482-0.875-0.482h-9.871l-0.619-0.747c-0.142-0.171-0.346-0.269-0.56-0.269s-0.419 0.098-0.56 0.269l-0.619 0.747h-9.871c-0.331 0-0.699 0.203-0.876 0.482l-3.834 6.066c-0.136 0.215-0.151 0.463-0.041 0.663s0.328 0.32 0.582 0.32h1.891v9.999c-0.471 0.451-0.766 1.085-0.766 1.787 0 0.129 0.010 0.255 0.030 0.378h-0.199c-0.431 0-0.781 0.351-0.781 0.781v0.889h-0.487c-0.259 0-0.469 0.21-0.469 0.469s0.21 0.469 0.469 0.469h31.063c0.259 0 0.469-0.21 0.469-0.469s-0.21-0.469-0.469-0.469zM29.607 10.225h-8.368l-0.622-0.75h8.516l0.474 0.75zM28.066 7.787l0.474 0.75h-8.7l-0.622-0.75h8.848zM27.046 6.266c0.026 0.004 0.073 0.031 0.091 0.050l0.338 0.534h-9.033l-0.484-0.584h9.089zM3.934 7.787h3.129c0.259 0 0.469-0.21 0.469-0.469s-0.21-0.469-0.469-0.469h-2.537l0.338-0.534c0.017-0.019 0.065-0.045 0.090-0.050h9.089l-0.484 0.584h-4.309c-0.259 0-0.469 0.21-0.469 0.469s0.21 0.469 0.469 0.469h3.532l-0.622 0.75h-8.7l0.474-0.75zM2.867 9.475h8.516l-0.622 0.75h-8.368l0.474-0.75zM1.32 11.923l0.481-0.761h8.183l-0.631 0.761h-8.033zM10.361 22.148c-0.355-0.202-0.763-0.318-1.193-0.318-0.845 0-1.627 0.45-2.064 1.154-0.117-0.023-0.237-0.034-0.359-0.034-0.175 0-0.344 0.025-0.505 0.070-0.463-0.525-1.138-0.847-1.859-0.847-0.269 0-0.528 0.044-0.771 0.124v-9.436h4.966c-0.17 0.206-0.212 0.455-0.112 0.668s0.319 0.34 0.586 0.34h1.311v8.28zM4.89 25.026h-1.998c-0.031-0.121-0.048-0.248-0.048-0.378 0-0.847 0.689-1.537 1.537-1.537 0.387 0 0.753 0.15 1.031 0.401-0.33 0.337-0.534 0.798-0.534 1.306 0 0.071 0.004 0.14 0.012 0.209zM10.361 26.696h-8.468v-0.733h8.468v0.733zM10.361 25.026h-4.521c-0.016-0.067-0.024-0.137-0.024-0.209 0-0.513 0.417-0.93 0.929-0.93 0.139 0 0.272 0.030 0.397 0.089 0.118 0.056 0.253 0.060 0.375 0.012s0.216-0.145 0.263-0.267c0.22-0.57 0.778-0.953 1.389-0.953 0.482 0 0.919 0.236 1.193 0.603v1.655zM9.735 12.931l6.265-7.556 6.265 7.556h-0.827l-5.077-6.124c-0.089-0.107-0.221-0.169-0.361-0.169s-0.272 0.062-0.361 0.17l-5.077 6.124h-0.827zM17.985 26.696h-3.97v-7.275h3.97v7.275zM28.39 26.696h-6.751v-5.66c0-0.259-0.21-0.469-0.469-0.469s-0.469 0.21-0.469 0.469v5.66h-1.779v-7.431c0-0.431-0.35-0.781-0.781-0.781h-4.282c-0.431 0-0.781 0.351-0.781 0.781v7.431h-1.779v-13.184l4.702-5.671 4.702 5.671v5.305c0 0.259 0.21 0.469 0.469 0.469s0.469-0.21 0.469-0.469v-4.948h1.311c0.267 0 0.486-0.127 0.586-0.34s0.058-0.462-0.112-0.668h1.826c0.259 0 0.469-0.21 0.469-0.469s-0.21-0.469-0.469-0.469h-2.603l-0.631-0.761h8.183l0.481 0.761h-3.18c-0.259 0-0.469 0.21-0.469 0.469s0.21 0.469 0.469 0.469h0.89v13.835z"></path>
</svg>
