<svg width="17" height="18" viewBox="0 0 17 18" fill="none" xmlns="http://www.w3.org/2000/svg">
<path d="M11.3333 1.91651C12.1606 1.91645 12.97 2.15785 13.6621 2.6111C14.3542 3.06436 14.8989 3.70976 15.2295 4.46814C15.5601 5.22652 15.6622 6.0649 15.5232 6.88045C15.3843 7.696 15.0103 8.45326 14.4472 9.05934L14.3126 9.19676L8.13095 15.3784L8.0934 15.4138L8.05374 15.4457C7.55017 15.8798 6.90115 16.1076 6.23674 16.0833C5.57232 16.0591 4.94161 15.7847 4.47099 15.3151C4.00038 14.8454 3.72463 14.2153 3.69902 13.5509C3.6734 12.8866 3.89981 12.2371 4.33286 11.7326L4.4384 11.6164L4.44903 11.6086L9.61278 6.43497C9.7455 6.30196 9.92563 6.22713 10.1135 6.22693C10.3014 6.22673 10.4817 6.30118 10.6147 6.4339C10.7477 6.56663 10.8226 6.74675 10.8228 6.93465C10.823 7.12255 10.7485 7.30283 10.6158 7.43584L5.45203 12.6095L5.44353 12.6152C5.23511 12.8377 5.11767 13.1303 5.11437 13.4352C5.11107 13.7401 5.22215 14.0352 5.4257 14.2622C5.62925 14.4892 5.91048 14.6317 6.21393 14.6616C6.51738 14.6915 6.821 14.6065 7.0649 14.4235L7.15132 14.3527L7.15203 14.3534L13.3159 8.19092L13.4286 8.07405C13.9245 7.52896 14.1885 6.8121 14.1646 6.07556C14.1408 5.33902 13.8309 4.64076 13.3007 4.12893C12.7705 3.6171 12.0618 3.33196 11.3249 3.33402C10.588 3.33608 9.88083 3.62518 9.35353 4.13997L9.24374 4.2533L9.23099 4.2618L2.62507 10.8705C2.55926 10.9363 2.48114 10.9885 2.39517 11.024C2.3092 11.0596 2.21707 11.0779 2.12403 11.0779C2.03099 11.0778 1.93887 11.0595 1.85293 11.0239C1.76698 10.9882 1.6889 10.936 1.62313 10.8702C1.55737 10.8044 1.50521 10.7263 1.46964 10.6403C1.43406 10.5543 1.41577 10.4622 1.4158 10.3692C1.41587 10.1813 1.49058 10.0011 1.62349 9.86826L8.21665 3.27155L8.24924 3.24109C8.64606 2.82199 9.12429 2.48834 9.6546 2.26058C10.1849 2.03281 10.7562 1.91573 11.3333 1.91651Z" fill="#008CFF"/>
</svg>
