<!-- Generated by IcoMoon.io -->
<svg version="1.1" xmlns="http://www.w3.org/2000/svg" width="32" height="32" viewBox="0 0 32 32">
<title>speak</title>
<path fill="#008cff" d="M20 30h-12.5c-0.663-0.001-1.298-0.264-1.767-0.733s-0.732-1.104-0.733-1.767v-0.5c0.796-0 1.559-0.316 2.121-0.879s0.879-1.326 0.879-2.121c0-0.133-0.053-0.26-0.146-0.354s-0.221-0.146-0.354-0.146h-2.5v-1c0-0.133-0.053-0.26-0.146-0.354s-0.221-0.146-0.354-0.146h-2.279l2.163-5.767c0.574-1.538 1.606-2.864 2.957-3.797 0.135-0.094 0.276-0.185 0.417-0.271l-0.518-0.855c-0.159 0.096-0.317 0.199-0.469 0.304-1.519 1.049-2.679 2.539-3.324 4.268l-2.416 6.442c-0.028 0.076-0.038 0.157-0.028 0.237s0.039 0.157 0.085 0.223c0.046 0.066 0.107 0.121 0.179 0.158s0.151 0.057 0.232 0.057h2.5v1c0 0.133 0.053 0.26 0.146 0.354s0.221 0.146 0.354 0.146h2.438c-0.111 0.429-0.362 0.809-0.713 1.081s-0.781 0.419-1.225 0.419h-0.5c-0.133 0-0.26 0.053-0.354 0.146s-0.146 0.221-0.146 0.354v1c0.001 0.928 0.37 1.818 1.026 2.474s1.546 1.025 2.474 1.026h13c0.133 0 0.26-0.053 0.354-0.147s0.146-0.221 0.146-0.354v-8h-1v7.5z"></path>
<path fill="#008cff" d="M28 1h-16.5c-0.795 0.001-1.558 0.317-2.12 0.88s-0.879 1.325-0.88 2.12v13c0.001 0.795 0.317 1.558 0.88 2.12s1.325 0.879 2.12 0.88h5.36l-0.845 3.379c-0.025 0.1-0.019 0.204 0.018 0.3s0.102 0.178 0.187 0.235c0.085 0.057 0.186 0.087 0.288 0.085s0.202-0.035 0.285-0.096l5.368-3.904h5.837c0.795-0.001 1.558-0.317 2.12-0.88s0.879-1.325 0.88-2.12v-13c-0.001-0.795-0.317-1.558-0.88-2.12s-1.325-0.879-2.12-0.88zM30 17c-0.001 0.53-0.212 1.039-0.586 1.414s-0.883 0.586-1.414 0.586h-6c-0.106 0-0.209 0.033-0.294 0.096l-4.387 3.191 0.666-2.665c0.018-0.074 0.020-0.151 0.004-0.225s-0.048-0.144-0.095-0.204c-0.047-0.060-0.107-0.108-0.175-0.142s-0.143-0.051-0.219-0.051h-6c-0.53-0.001-1.039-0.212-1.414-0.586s-0.586-0.883-0.586-1.414v-13c0.001-0.53 0.211-1.039 0.586-1.414s0.883-0.586 1.414-0.586h16.5c0.53 0.001 1.039 0.212 1.414 0.586s0.586 0.883 0.586 1.414v13z"></path>
<path fill="#008cff" d="M20 4c-1.286 0-2.542 0.381-3.611 1.095s-1.902 1.729-2.394 2.917c-0.492 1.188-0.621 2.495-0.37 3.756s0.87 2.419 1.779 3.328c0.909 0.909 2.067 1.528 3.328 1.779s2.568 0.122 3.756-0.37c1.188-0.492 2.203-1.325 2.917-2.394s1.095-2.326 1.095-3.611c-0.002-1.723-0.687-3.375-1.906-4.594s-2.871-1.904-4.594-1.906zM21.359 6.454c0.006 0.015 0.012 0.031 0.019 0.046h-2.755c0.006-0.015 0.012-0.031 0.019-0.046 0.39-0.911 0.898-1.454 1.359-1.454s0.969 0.544 1.359 1.454zM21.915 5.344c0.689 0.257 1.32 0.65 1.855 1.156h-1.315c-0.14-0.402-0.321-0.79-0.54-1.156zM17.938 10c0.025-0.844 0.143-1.682 0.35-2.5h3.424c0.207 0.818 0.325 1.656 0.35 2.5h-4.124zM22.062 11c-0.025 0.844-0.143 1.682-0.35 2.5h-3.424c-0.207-0.818-0.325-1.656-0.35-2.5h4.124zM17.545 6.5h-1.315c0.535-0.505 1.166-0.898 1.855-1.156-0.219 0.366-0.4 0.753-0.54 1.156zM17.252 7.5c-0.187 0.821-0.292 1.658-0.315 2.5h-2.414c0.081-0.892 0.379-1.751 0.87-2.5h1.86zM16.937 11c0.023 0.842 0.129 1.679 0.315 2.5h-1.86c-0.49-0.749-0.789-1.608-0.87-2.5h2.414zM17.545 14.5c0.14 0.402 0.321 0.79 0.54 1.156-0.689-0.257-1.32-0.65-1.855-1.156h1.315zM18.641 14.546c-0.006-0.015-0.012-0.031-0.019-0.046h2.755c-0.006 0.015-0.012 0.031-0.019 0.046-0.39 0.911-0.898 1.454-1.358 1.454s-0.968-0.544-1.359-1.454zM22.455 14.5h1.315c-0.535 0.505-1.166 0.898-1.855 1.156 0.219-0.366 0.4-0.753 0.54-1.156zM22.748 13.5c0.187-0.821 0.292-1.658 0.315-2.5h2.414c-0.081 0.892-0.379 1.751-0.87 2.5h-1.86zM23.063 10c-0.023-0.842-0.129-1.679-0.315-2.5h1.86c0.49 0.749 0.789 1.608 0.87 2.5h-2.414z"></path>
<path fill="#008cff" d="M10.548 5.279l1-1.999 0.894 0.447-1 1.999-0.894-0.447z"></path>
<path fill="#008cff" d="M12.548 5.281l1-1.999 0.894 0.447-1 1.999-0.894-0.447z"></path>
<path fill="#008cff" d="M25.040 17.282l1-1.999 0.894 0.447-1 1.999-0.894-0.447z"></path>
<path fill="#008cff" d="M27.039 17.283l1-1.999 0.894 0.447-1 1.999-0.894-0.447z"></path>
</svg>
