<!-- Generated by IcoMoon.io -->
<svg version="1.1" xmlns="http://www.w3.org/2000/svg" width="32" height="32" viewBox="0 0 32 32">
<title>doc</title>
<path fill="#008cff" d="M19.071 18.839h-11.705c-0.259 0-0.469 0.21-0.469 0.469s0.21 0.469 0.469 0.469h11.705c0.259 0 0.469-0.21 0.469-0.469s-0.21-0.469-0.469-0.469z"></path>
<path fill="#008cff" d="M15.436 21.047h-8.071c-0.259 0-0.469 0.21-0.469 0.469s0.21 0.469 0.469 0.469h8.071c0.259 0 0.469-0.21 0.469-0.469s-0.21-0.469-0.469-0.469z"></path>
<path fill="#008cff" d="M29.051 9.612c0.259 0 0.469-0.21 0.469-0.469v-4.244c0-0.259-0.21-0.469-0.469-0.469h-5.32v-3.961c0-0.259-0.21-0.469-0.469-0.469h-20.313c-0.259 0-0.469 0.21-0.469 0.469v16.113c0 0.259 0.21 0.469 0.469 0.469s0.469-0.21 0.469-0.469v-15.643h19.374v21.683h-3.542c-0.259 0-0.469 0.21-0.469 0.469v3.542l-15.363 0v-8.174c0-0.259-0.21-0.469-0.469-0.469s-0.469 0.21-0.469 0.469v8.643c0 0.259 0.21 0.469 0.469 0.469h5.32v3.96c0 0.259 0.21 0.469 0.469 0.469h16.302c0.004 0 0.008-0.001 0.011-0.001 0.012-0 0.023-0.001 0.034-0.002 0.009-0.001 0.018-0.002 0.027-0.004 0.006-0.001 0.012-0.002 0.019-0.003 0.009-0.002 0.019-0.004 0.028-0.007 0.006-0.002 0.011-0.002 0.016-0.004 0.009-0.003 0.018-0.006 0.026-0.009 0.006-0.002 0.011-0.004 0.017-0.006 0.008-0.004 0.017-0.008 0.025-0.012 0.006-0.003 0.011-0.005 0.017-0.008 0.009-0.005 0.017-0.010 0.025-0.015 0.005-0.003 0.009-0.005 0.014-0.008 0.011-0.008 0.022-0.016 0.033-0.024 0.001-0.001 0.003-0.002 0.004-0.003 0.012-0.010 0.024-0.020 0.035-0.032l4.011-4.011c0.015-0.015 0.028-0.031 0.041-0.048 0.003-0.004 0.006-0.008 0.009-0.012 0.012-0.017 0.023-0.034 0.033-0.052 0-0.001 0.001-0.002 0.001-0.003 0.009-0.017 0.017-0.035 0.023-0.053 0.002-0.005 0.003-0.009 0.005-0.014 0.006-0.019 0.012-0.039 0.016-0.058 0-0 0-0 0-0 0.004-0.020 0.006-0.040 0.007-0.060 0-0.005 0.001-0.010 0.001-0.016s0.001-0.010 0.001-0.016v-16.501c0-0.259-0.21-0.469-0.469-0.469s-0.469 0.21-0.469 0.469v16.032h-3.542c-0.259 0-0.469 0.21-0.469 0.469v3.542h-15.363v-3.491h10.043c0.004 0 0.008-0 0.011-0.001 0.012-0 0.023-0.001 0.034-0.002 0.009-0.001 0.018-0.003 0.027-0.004 0.006-0.001 0.012-0.002 0.019-0.003 0.009-0.002 0.019-0.005 0.028-0.007 0.005-0.001 0.011-0.003 0.016-0.004 0.009-0.003 0.018-0.006 0.026-0.009 0.006-0.002 0.011-0.004 0.017-0.006 0.008-0.003 0.017-0.008 0.025-0.012 0.006-0.003 0.011-0.005 0.017-0.008 0.009-0.005 0.017-0.010 0.025-0.015 0.005-0.003 0.009-0.005 0.014-0.008 0.011-0.008 0.022-0.016 0.033-0.024 0.001-0.001 0.003-0.002 0.004-0.003 0.012-0.010 0.024-0.020 0.035-0.032l4.011-4.011c0.015-0.015 0.028-0.031 0.041-0.048 0.003-0.004 0.006-0.008 0.009-0.012 0.012-0.017 0.023-0.034 0.033-0.052 0-0.001 0.001-0.002 0.001-0.002 0.009-0.017 0.017-0.035 0.024-0.054 0.002-0.005 0.003-0.009 0.005-0.014 0.006-0.019 0.012-0.039 0.016-0.059 0-0 0-0 0-0 0.004-0.020 0.006-0.040 0.007-0.060 0-0.005 0.001-0.010 0.001-0.016s0.001-0.010 0.001-0.016v-17.722h4.851v3.775c0 0.259 0.21 0.469 0.469 0.469zM25.509 27.989h2.409l-2.409 2.409v-2.409zM19.72 25.969v-2.409h2.409l-2.409 2.409z"></path>
<path fill="#008cff" d="M16.44 7.744c-0.241-0.241-0.562-0.374-0.902-0.374s-0.661 0.133-0.902 0.374l-2.768 2.768-0.933-0.933c-0.241-0.241-0.561-0.374-0.902-0.374s-0.661 0.133-0.902 0.374c-0.498 0.498-0.498 1.307 0 1.805l1.835 1.835c0.241 0.241 0.562 0.374 0.902 0.374s0.661-0.133 0.902-0.374l3.67-3.67c0.241-0.241 0.374-0.562 0.374-0.902s-0.133-0.661-0.374-0.902zM15.776 8.885l-3.67 3.67c-0.064 0.064-0.149 0.099-0.239 0.099-0.089 0-0.176-0.036-0.239-0.099l-1.835-1.835c-0.132-0.132-0.132-0.346 0-0.478 0.064-0.064 0.149-0.099 0.239-0.099s0.175 0.035 0.239 0.099l1.265 1.265c0.088 0.088 0.207 0.137 0.332 0.137s0.244-0.049 0.332-0.137l3.1-3.1c0.064-0.064 0.149-0.099 0.239-0.099s0.175 0.035 0.239 0.099 0.099 0.149 0.099 0.239c0 0.090-0.035 0.175-0.099 0.239z"></path>
<path fill="#008cff" d="M12.784 3.497c-1.44 0-2.819 0.439-3.989 1.271-0.211 0.15-0.261 0.443-0.111 0.654s0.443 0.261 0.654 0.111c1.010-0.718 2.201-1.097 3.445-1.097 3.283 0 5.954 2.671 5.954 5.954s-2.671 5.954-5.954 5.954c-3.283 0-5.954-2.671-5.954-5.954 0-1.335 0.431-2.596 1.247-3.647 0.159-0.205 0.122-0.499-0.083-0.658s-0.499-0.122-0.658 0.083c-0.945 1.218-1.445 2.678-1.445 4.223 0 3.801 3.092 6.893 6.893 6.893s6.893-3.092 6.893-6.893c0-3.801-3.092-6.893-6.893-6.893z"></path>
</svg>
